<svg width="25" height="24" viewBox="0 0 25 24" fill="none" xmlns="http://www.w3.org/2000/svg">
<path d="M21.0669 14.15V18.4C21.0669 19.494 20.28 20.436 19.195 20.58C17.108 20.857 14.9789 21 12.8169 21C10.6549 21 8.52595 20.857 6.43895 20.58C5.35395 20.436 4.56695 19.494 4.56695 18.4V14.15M21.0669 14.15C21.3044 13.9436 21.4944 13.6883 21.6238 13.4016C21.7533 13.1149 21.8192 12.8036 21.8169 12.489V8.706C21.8169 7.625 21.0489 6.691 19.9799 6.531C18.8473 6.36142 17.7089 6.23234 16.5669 6.144M21.0669 14.15C20.8729 14.315 20.6469 14.445 20.3939 14.53C17.9502 15.3408 15.3917 15.7528 12.8169 15.75C10.1689 15.75 7.62195 15.321 5.23995 14.53C4.99321 14.4479 4.76468 14.3189 4.56695 14.15M4.56695 14.15C4.32949 13.9436 4.13951 13.6883 4.01005 13.4016C3.88059 13.1149 3.81471 12.8036 3.81695 12.489V8.706C3.81695 7.625 4.58495 6.691 5.65395 6.531C6.78665 6.36142 7.92504 6.23233 9.06695 6.144M16.5669 6.144V5.25C16.5669 4.65326 16.3299 4.08097 15.9079 3.65901C15.486 3.23705 14.9137 3 14.3169 3H11.3169C10.7202 3 10.1479 3.23705 9.72596 3.65901C9.304 4.08097 9.06695 4.65326 9.06695 5.25V6.144M16.5669 6.144C14.0707 5.95108 11.5632 5.95108 9.06695 6.144M12.8169 12.75H12.825V12.758H12.8169V12.75Z" stroke="black" stroke-width="1.5" stroke-linecap="round" stroke-linejoin="round"/>
</svg>
