<svg width="100" height="100" viewBox="0 0 100 100" fill="none" xmlns="http://www.w3.org/2000/svg">
<path d="M90.8542 50C96.1814 50 100.594 54.358 99.5725 59.5863C97.9403 67.9411 94.1902 75.7964 88.611 82.3659C80.9357 91.4036 70.2984 97.4195 58.5979 99.3399C46.8974 101.26 34.8952 98.96 24.7337 92.8497C14.5723 86.7395 6.913 77.217 3.12302 65.9819C-0.666949 54.7469 -0.340911 42.5306 4.04294 31.5137C8.42679 20.4969 16.5831 11.3964 27.056 5.8369C37.5289 0.277367 49.6367 -1.37942 61.2181 1.16229C69.6367 3.00986 77.3788 6.98846 83.7383 12.6473C87.7181 16.1886 86.847 22.3289 82.6083 25.5558C78.3697 28.7827 72.3694 27.7937 67.9907 24.7595C64.7242 22.496 61.0242 20.8704 57.0827 20.0054C49.9698 18.4444 42.5336 19.4619 36.1014 22.8764C29.6693 26.2909 24.6599 31.8801 21.9675 38.6463C19.2751 45.4125 19.0749 52.9154 21.4025 59.8156C23.7302 66.7158 28.4343 72.5643 34.6752 76.317C40.916 80.0697 48.2874 81.4824 55.4735 80.303C62.6596 79.1236 69.1926 75.4288 73.9066 69.8781C76.5187 66.8024 78.478 63.2677 79.7059 59.4881C81.3519 54.4216 85.527 50 90.8542 50Z" fill="#6E6E6E"/>
</svg>
