<svg width="89" height="73" viewBox="0 0 89 73" fill="none" xmlns="http://www.w3.org/2000/svg">
<path opacity="0.8" d="M0.122559 58.1308C0.601428 56.4215 1.22712 54.798 2.53724 53.5177C4.79606 51.3229 7.47276 50.5438 10.4702 51.3319C13.4677 52.12 15.4261 54.0844 16.2031 57.0899C17.5945 62.4685 13.5264 67.4768 7.97421 67.3007C6.16144 67.2347 4.42232 66.5669 3.03154 65.4028C1.64076 64.2386 0.677613 62.6444 0.294229 60.8721C0.25063 60.7341 0.19311 60.601 0.122559 60.4747L0.122559 58.1308Z" fill="#B3B2B2"/>
<path d="M19.4257 40.3417L30.2183 59.0269C31.7385 58.1575 33.2023 57.2972 34.6863 56.4753C37.0603 55.1589 39.4095 55.3756 41.2685 57.0534C43.7848 59.3114 43.6267 63.4345 40.8348 65.3561C39.0277 66.5935 37.0919 67.6277 35.1878 68.7183C33.4462 69.7186 31.7227 70.7618 29.9134 71.6289C25.8114 73.5934 20.7336 72.5163 17.6322 69.1135C22.2289 64.0103 23.3538 58.3878 19.9362 52.2189C18.4296 49.5093 16.0804 47.6622 13.1597 46.5603C10.3682 45.4912 7.29926 45.3855 4.4407 46.26C2.93633 42.2294 4.47684 36.862 8.09096 34.4911C11.6215 32.1766 15.3192 30.0857 19.0236 28.0715C21.5445 26.7032 24.6458 27.7667 26.0463 30.1941C26.7473 31.3682 26.9683 32.7674 26.6632 34.1003C26.3582 35.4332 25.5506 36.5971 24.4087 37.3498C22.8388 38.4223 21.1311 39.3233 19.4257 40.3417Z" fill="#B3B2B2"/>
<path d="M63.9028 13.1726C61.2479 15.7478 59.7824 18.8506 59.6062 22.5204C59.4668 25.2419 60.1763 27.9393 61.6367 30.2394C64.4966 34.8509 70.3793 37.817 77.0795 36.0072C77.8877 38.5102 77.7359 41.2247 76.6537 43.6226C75.616 45.9891 73.8533 47.6918 71.6213 48.9566C68.7503 50.5829 65.9168 52.2751 63.0375 53.8887C59.4825 55.8869 55.3927 54.0786 54.7707 50.2244C54.4298 48.1053 55.0682 46.2542 56.8685 45.0192C58.4957 43.9034 60.2409 42.9626 62.0307 41.8858L51.2518 23.203C49.7647 24.0581 48.2926 24.9009 46.8232 25.7479C44.8957 26.8599 42.9383 26.94 41.0148 25.8008C37.7711 23.8681 37.4496 18.938 40.626 16.9091C44.295 14.5199 48.1045 12.3538 52.0339 10.4228C55.6813 8.67104 60.5716 9.58519 63.9028 13.1726Z" fill="#B3B2B2"/>
<path d="M77.3447 16.0026C81.1071 18.1748 82.4088 23.2091 80.1974 26.9898C77.89 30.9367 72.918 32.3723 69.1422 30.1872C65.2312 27.9291 63.8409 22.9715 65.9245 19.2136C68.2683 14.9825 73.6309 13.7958 77.3447 16.0026Z" fill="#B3B2B2"/>
</svg>
