<svg width="88" height="68" viewBox="0 0 88 68" fill="none" xmlns="http://www.w3.org/2000/svg">
<g clip-path="url(#clip0_292_1399)">
<path d="M87.5773 57.2298C86.161 59.492 84.0963 61.0308 81.9954 62.4777C76.0799 66.5623 69.5718 68.3477 62.4711 67.834C59.3169 67.6182 56.2161 66.8775 53.2861 65.6401C65.1096 65.124 75.0016 60.345 82.9713 51.1123C84.6339 52.5804 86.545 53.7186 87.5773 55.8253V57.2298Z" fill="#B3B2B2"/>
<path d="M31.1409 30.6179C31.3442 18.9603 34.9992 9.54611 42.2686 1.68249C43.5562 0.289804 45.0245 0.296873 46.3189 1.68249C52.1742 7.99553 55.8495 15.4633 56.9654 24.1799C58.6371 37.1948 54.9956 48.4683 46.3957 58.0215C45.029 59.5391 43.5562 59.5085 42.1669 58.0074C36.5969 52.0692 32.9321 44.4732 31.6785 36.2687C31.3329 34.162 31.2651 32.0082 31.1409 30.6179Z" fill="#B3B2B2"/>
<path d="M56.1863 53.6622C57.257 51.2869 58.4452 48.9328 59.3985 46.4749C61.8834 39.9969 62.787 33.2503 62.2697 26.2869C61.9578 22.0732 61.0747 17.9269 59.647 13.9718C59.4211 13.3686 59.5047 13.0599 60.0672 12.8219C62.6944 11.719 65.2899 10.5219 67.9487 9.52277C69.652 8.87709 71.0571 9.75842 71.4592 11.6177C74.6865 26.4243 71.1241 39.169 60.772 49.8518C59.5521 51.1031 58.129 52.1352 56.7917 53.2616C56.5974 53.4071 56.3952 53.5408 56.1863 53.6622Z" fill="#B3B2B2"/>
<path d="M32.3085 53.8511C30.4516 52.1662 28.4886 50.5897 26.7537 48.7752C20.8984 42.6483 17.4693 35.2278 16.2698 26.6902C15.5862 21.675 15.8673 16.5681 17.0966 11.6675C17.5484 9.7682 18.9038 8.86567 20.6545 9.52077C23.2387 10.4893 25.7552 11.6416 28.3124 12.6997C29.042 12.999 29.164 13.3901 28.8794 14.1607C26.7175 20.0284 25.8953 26.1317 26.2183 32.3835C26.5644 39.5351 28.5548 46.4948 32.0216 52.6752L32.5299 53.5872L32.3085 53.8511Z" fill="#B3B2B2"/>
<path d="M11.4564 28.8125C13.9977 42.4802 20.9847 52.8299 32.3993 60.0714C31.9317 60.0148 31.4618 59.963 30.9942 59.897C30.5266 59.831 30.0454 59.7792 29.5778 59.6779C17.4938 57.048 8.89168 49.8756 3.77134 38.1607C3.09365 36.596 2.64186 34.9182 2.1494 33.2686C2.0478 32.9534 2.00737 32.6203 2.03049 32.2886C2.05361 31.9569 2.13981 31.6334 2.28405 31.3368C2.4283 31.0402 2.62771 30.7766 2.87065 30.5613C3.11359 30.346 3.3952 30.1832 3.69906 30.0826C6.21474 29.281 8.82622 28.8534 11.4564 28.8125Z" fill="#B3B2B2"/>
<path d="M56.1846 60.1048C67.5653 52.8681 74.5591 42.5136 77.1456 28.6904C78.9166 28.9261 80.6877 29.1617 82.4542 29.4445C83.1742 29.5682 83.8858 29.7406 84.5844 29.9606C86.1047 30.4319 86.8659 31.8034 86.4074 33.3751C82.2305 47.672 73.093 56.3863 59.1483 59.6571C58.177 59.8857 57.174 59.9611 56.1846 60.1048Z" fill="#B3B2B2"/>
<path d="M5.57185 51.0693C13.5754 60.3421 23.4629 65.114 35.3315 65.7715C33.931 66.2074 32.5507 66.7518 31.1253 67.0628C20.1016 69.4712 10.4083 66.7612 2.12917 58.7373C0.575001 57.2316 0.561447 55.7399 2.11788 54.2176C3.21574 53.1336 4.39718 52.1321 5.57185 51.0693Z" fill="#B3B2B2"/>
</g>
<defs>
<clipPath id="clip0_292_1399">
<rect width="86.6203" height="67.2779" fill="white" transform="translate(0.957031 0.640625)"/>
</clipPath>
</defs>
</svg>
