<svg width="87" height="68" viewBox="0 0 87 68" fill="none" xmlns="http://www.w3.org/2000/svg">
<path d="M86.6203 56.5891C85.2039 58.8514 83.1392 60.3902 81.0384 61.837C75.1229 65.9216 68.6148 67.7071 61.5141 67.1934C58.3599 66.9775 55.2591 66.2369 52.3291 64.9995C64.1526 64.4834 74.0446 59.7044 82.0143 50.4717C83.6769 51.9398 85.5879 53.078 86.6203 55.1847V56.5891Z" fill="#5A784B" fill-opacity="0.5"/>
<path d="M30.1838 29.9772C30.3871 18.3197 34.0422 8.90548 41.3115 1.04187C42.5991 -0.350821 44.0675 -0.343752 45.3619 1.04187C51.2171 7.35491 54.8925 14.8226 56.0084 23.5393C57.68 36.5542 54.0386 47.8277 45.4387 57.3809C44.072 58.8985 42.5991 58.8678 41.2099 57.3667C35.6399 51.4285 31.975 43.8326 30.7215 35.6281C30.3759 33.5214 30.3081 31.3676 30.1838 29.9772Z" fill="#5A784B" fill-opacity="0.5"/>
<path d="M55.2292 53.0216C56.3 50.6463 57.4882 48.2921 58.4415 45.8343C60.9264 39.3563 61.83 32.6097 61.3127 25.6462C61.0007 21.4326 60.1177 17.2863 58.69 13.3312C58.4641 12.7279 58.5477 12.4192 59.1102 12.1812C61.7373 11.0784 64.3329 9.8813 66.9917 8.88215C68.695 8.23647 70.1001 9.1178 70.5022 10.9771C73.7295 25.7837 70.1671 38.5284 59.815 49.2112C58.5951 50.4625 57.172 51.4946 55.8347 52.621C55.6403 52.7665 55.4382 52.9002 55.2292 53.0216Z" fill="#5A784B" fill-opacity="0.5"/>
<path d="M31.3515 53.2105C29.4946 51.5256 27.5316 49.9491 25.7967 48.1346C19.9414 42.0077 16.5123 34.5871 15.3128 26.0496C14.6292 21.0344 14.9102 15.9275 16.1396 11.0269C16.5914 9.12758 17.9467 8.22504 19.6974 8.88015C22.2817 9.84866 24.7982 11.001 27.3554 12.0591C28.085 12.3583 28.207 12.7495 27.9224 13.5201C25.7605 19.3877 24.9383 25.4911 25.2613 31.7428C25.6074 38.8944 27.5978 45.8542 31.0646 52.0346L31.5728 52.9466L31.3515 53.2105Z" fill="#5A784B" fill-opacity="0.5"/>
<path d="M10.4993 28.1719C13.0407 41.8395 20.0277 52.1893 31.4423 59.4308C30.9747 59.3742 30.5048 59.3224 30.0372 59.2564C29.5696 59.1904 29.0884 59.1386 28.6208 59.0372C16.5368 56.4074 7.93465 49.235 2.81431 37.5201C2.13662 35.9554 1.68483 34.2776 1.19237 32.628C1.09077 32.3128 1.05034 31.9796 1.07346 31.648C1.09658 31.3163 1.18278 30.9927 1.32702 30.6962C1.47127 30.3996 1.67068 30.136 1.91362 29.9207C2.15656 29.7053 2.43817 29.5426 2.74203 29.442C5.25771 28.6404 7.86919 28.2128 10.4993 28.1719Z" fill="#5A784B" fill-opacity="0.5"/>
<path d="M55.2275 59.4642C66.6082 52.2274 73.602 41.873 76.1886 28.0498C77.9596 28.2855 79.7306 28.5211 81.4971 28.8039C82.2172 28.9276 82.9288 29.0999 83.6274 29.32C85.1476 29.7913 85.9089 31.1627 85.4503 32.7345C81.2735 47.0314 72.136 55.7457 58.1913 59.0165C57.22 59.2451 56.217 59.3205 55.2275 59.4642Z" fill="#5A784B" fill-opacity="0.5"/>
<path d="M4.61482 50.4287C12.6184 59.7015 22.5059 64.4734 34.3745 65.1308C32.9739 65.5668 31.5937 66.1111 30.1683 66.4222C19.1445 68.8305 9.45127 66.1206 1.17214 58.0967C-0.38203 56.5909 -0.395584 55.0993 1.16085 53.577C2.25871 52.493 3.44015 51.4915 4.61482 50.4287Z" fill="#5A784B" fill-opacity="0.5"/>
</svg>
