<svg width="27" height="23" viewBox="0 0 27 23" fill="none" xmlns="http://www.w3.org/2000/svg">
<g clip-path="url(#clip0_292_1386)">
<path d="M14.908 13.7337V19.6396C14.908 20.4599 15.1995 21.1571 15.7826 21.7313C16.3656 22.3055 17.0735 22.5926 17.9064 22.5926H23.9032C24.7361 22.5926 25.4441 22.3055 26.0271 21.7313C26.6101 21.1571 26.9016 20.4599 26.9016 19.6396V8.81207C26.9016 7.74572 26.6908 6.72808 26.2691 5.75914C25.8475 4.79019 25.2775 3.95198 24.5591 3.2445C23.8408 2.53702 22.9896 1.97565 22.0058 1.56039C21.0219 1.14513 19.9886 0.9375 18.9059 0.9375H17.9064C17.6357 0.9375 17.4015 1.03491 17.2037 1.22972C17.0059 1.42453 16.907 1.65523 16.907 1.92182V3.89046C16.907 4.15705 17.0059 4.38775 17.2037 4.58256C17.4015 4.77738 17.6357 4.87478 17.9064 4.87478H18.9059C20.0095 4.87478 20.9517 5.25929 21.7325 6.02829C22.5133 6.79729 22.9038 7.72522 22.9038 8.81207V9.30423C22.9038 9.71436 22.758 10.063 22.4665 10.3501C22.175 10.6372 21.821 10.7807 21.4046 10.7807H17.9064C17.0735 10.7807 16.3656 11.0678 15.7826 11.642C15.1995 12.2162 14.908 12.9134 14.908 13.7337ZM0.915529 13.7337V19.6396C0.915529 20.4599 1.20704 21.1571 1.79006 21.7313C2.37308 22.3055 3.08104 22.5926 3.91392 22.5926H9.91071C10.7436 22.5926 11.4516 22.3055 12.0346 21.7313C12.6176 21.1571 12.9091 20.4599 12.9091 19.6396V8.81207C12.9091 7.74572 12.6983 6.72808 12.2766 5.75914C11.855 4.79019 11.285 3.95198 10.5666 3.2445C9.84825 2.53702 8.99714 1.97565 8.01329 1.56039C7.02944 1.14513 5.99614 0.9375 4.91339 0.9375H3.91392C3.64323 0.9375 3.40899 1.03491 3.21117 1.22972C3.01336 1.42453 2.91446 1.65523 2.91446 1.92182V3.89046C2.91446 4.15705 3.01336 4.38775 3.21117 4.58256C3.40899 4.77738 3.64323 4.87478 3.91392 4.87478H4.91339C6.01696 4.87478 6.95917 5.25929 7.74 6.02829C8.52083 6.79729 8.91125 7.72522 8.91125 8.81207V9.30423C8.91125 9.71436 8.76549 10.063 8.47398 10.3501C8.18247 10.6372 7.82849 10.7807 7.41205 10.7807H3.91392C3.08104 10.7807 2.37308 11.0678 1.79006 11.642C1.20704 12.2162 0.915529 12.9134 0.915529 13.7337Z" fill="#B3B2B2"/>
</g>
<defs>
<clipPath id="clip0_292_1386">
<rect width="25.9861" height="21.6551" fill="white" transform="matrix(-1 0 0 1 26.9016 0.9375)"/>
</clipPath>
</defs>
</svg>
